<?xml version="1.0" encoding="utf-8"?>
<!-- Generator: Adobe Illustrator 24.0.2, SVG Export Plug-In . SVG Version: 6.00 Build 0)  -->
<svg version="1.1" id="Capa_1" xmlns="http://www.w3.org/2000/svg" xmlns:xlink="http://www.w3.org/1999/xlink" x="0px" y="0px"
	 viewBox="0 0 841.89 223.96" style="enable-background:new 0 0 841.89 223.96;" xml:space="preserve">
<style type="text/css">
	.st0{font-family:'Montserrat-Bold';}
	.st1{font-size:54.9011px;}
	.st2{letter-spacing:3;}
</style>
<g>
	<g>
		<path d="M337.8,158.74v-13.75h2.55v13.75H337.8z"/>
		<path d="M344.06,158.74v-13.75h2.1l8.62,10.59h-1.04v-10.59h2.53v13.75h-2.1l-8.62-10.59h1.04v10.59H344.06z"/>
		<path d="M359.98,158.74v-13.75h2.1l8.62,10.59h-1.04v-10.59h2.53v13.75h-2.1l-8.62-10.59h1.04v10.59H359.98z"/>
		<path d="M382.33,158.94c-1.07,0-2.06-0.18-2.97-0.53c-0.9-0.35-1.69-0.85-2.36-1.48c-0.67-0.64-1.19-1.38-1.55-2.24
			c-0.37-0.86-0.55-1.8-0.55-2.82c0-1.02,0.18-1.96,0.55-2.82c0.37-0.86,0.88-1.6,1.55-2.24c0.67-0.64,1.45-1.13,2.36-1.48
			c0.9-0.35,1.89-0.53,2.95-0.53c1.07,0,2.06,0.18,2.96,0.53c0.9,0.35,1.68,0.85,2.35,1.48c0.67,0.64,1.19,1.38,1.55,2.24
			c0.37,0.86,0.55,1.8,0.55,2.82c0,1.02-0.18,1.96-0.55,2.83c-0.37,0.86-0.88,1.61-1.55,2.24c-0.67,0.63-1.45,1.12-2.35,1.47
			C384.37,158.76,383.39,158.94,382.33,158.94z M382.31,156.7c0.69,0,1.34-0.12,1.92-0.35c0.59-0.24,1.1-0.57,1.53-1.01
			c0.43-0.44,0.77-0.95,1.01-1.53c0.24-0.58,0.36-1.23,0.36-1.93s-0.12-1.35-0.36-1.93c-0.24-0.58-0.58-1.09-1.01-1.53
			c-0.43-0.44-0.94-0.78-1.53-1.01c-0.59-0.24-1.23-0.35-1.92-0.35c-0.69,0-1.33,0.12-1.92,0.35c-0.58,0.24-1.09,0.57-1.53,1.01
			c-0.44,0.44-0.78,0.95-1.02,1.53c-0.24,0.58-0.36,1.23-0.36,1.93c0,0.69,0.12,1.34,0.36,1.93c0.24,0.59,0.58,1.1,1.01,1.54
			c0.43,0.44,0.94,0.78,1.53,1.01C380.97,156.58,381.62,156.7,382.31,156.7z"/>
		<path d="M396.06,158.74l-6.01-13.75h2.77l5.36,12.43h-1.59l5.42-12.43h2.55l-5.99,13.75H396.06z"/>
		<path d="M403.64,158.74l6.19-13.75h2.51l6.21,13.75h-2.67l-5.32-12.4h1.02l-5.3,12.4H403.64z M406.49,155.56l0.69-2h7.43l0.69,2
			H406.49z"/>
		<path d="M426.47,158.94c-1.05,0-2.02-0.17-2.92-0.52c-0.9-0.35-1.68-0.84-2.34-1.47c-0.66-0.64-1.18-1.38-1.54-2.25
			c-0.37-0.86-0.55-1.81-0.55-2.83c0-1.02,0.18-1.96,0.55-2.83c0.37-0.86,0.88-1.61,1.55-2.25c0.67-0.64,1.45-1.13,2.34-1.47
			c0.89-0.35,1.87-0.52,2.93-0.52c1.13,0,2.15,0.19,3.08,0.58c0.93,0.39,1.72,0.96,2.36,1.72l-1.65,1.55
			c-0.5-0.54-1.05-0.94-1.67-1.21c-0.62-0.27-1.28-0.4-2-0.4c-0.72,0-1.38,0.12-1.97,0.35c-0.6,0.24-1.11,0.57-1.55,1
			c-0.44,0.43-0.78,0.94-1.02,1.53c-0.24,0.59-0.36,1.24-0.36,1.94s0.12,1.36,0.36,1.94c0.24,0.59,0.58,1.1,1.02,1.53
			c0.44,0.43,0.96,0.77,1.55,1c0.6,0.24,1.25,0.35,1.97,0.35c0.72,0,1.39-0.13,2-0.4c0.62-0.27,1.17-0.68,1.67-1.23l1.65,1.57
			c-0.64,0.75-1.43,1.32-2.36,1.71C428.64,158.74,427.61,158.94,426.47,158.94z"/>
		<path d="M434.39,158.74v-13.75h2.55v13.75H434.39z"/>
		<path d="M447.1,158.94c-1.07,0-2.06-0.18-2.97-0.53c-0.9-0.35-1.69-0.85-2.36-1.48c-0.67-0.64-1.19-1.38-1.55-2.24
			c-0.37-0.86-0.55-1.8-0.55-2.82c0-1.02,0.18-1.96,0.55-2.82c0.37-0.86,0.88-1.6,1.55-2.24c0.67-0.64,1.45-1.13,2.36-1.48
			c0.9-0.35,1.89-0.53,2.95-0.53c1.07,0,2.06,0.18,2.96,0.53c0.9,0.35,1.68,0.85,2.35,1.48c0.67,0.64,1.19,1.38,1.55,2.24
			c0.37,0.86,0.55,1.8,0.55,2.82c0,1.02-0.18,1.96-0.55,2.83c-0.37,0.86-0.88,1.61-1.55,2.24c-0.67,0.63-1.45,1.12-2.35,1.47
			C449.14,158.76,448.16,158.94,447.1,158.94z M447.08,156.7c0.69,0,1.34-0.12,1.92-0.35c0.59-0.24,1.1-0.57,1.53-1.01
			c0.43-0.44,0.77-0.95,1.01-1.53c0.24-0.58,0.36-1.23,0.36-1.93s-0.12-1.35-0.36-1.93s-0.58-1.09-1.01-1.53
			c-0.43-0.44-0.94-0.78-1.53-1.01c-0.59-0.24-1.23-0.35-1.92-0.35c-0.69,0-1.33,0.12-1.92,0.35c-0.58,0.24-1.09,0.57-1.53,1.01
			c-0.44,0.44-0.78,0.95-1.02,1.53c-0.24,0.58-0.36,1.23-0.36,1.93c0,0.69,0.12,1.34,0.36,1.93c0.24,0.59,0.58,1.1,1.01,1.54
			c0.43,0.44,0.94,0.78,1.53,1.01C445.74,156.58,446.38,156.7,447.08,156.7z M445.43,143.87l2.65-2.69h2.89l-3.42,2.69H445.43z"/>
		<path d="M457.19,158.74v-13.75h2.1l8.62,10.59h-1.04v-10.59h2.53v13.75h-2.1l-8.62-10.59h1.04v10.59H457.19z"/>
		<path d="M478.53,158.74v-13.75h5.66c1.22,0,2.26,0.2,3.13,0.59c0.87,0.39,1.54,0.96,2.01,1.69c0.47,0.73,0.71,1.6,0.71,2.61
			c0,1.01-0.24,1.88-0.71,2.61c-0.47,0.73-1.14,1.3-2.01,1.69c-0.87,0.39-1.92,0.59-3.13,0.59h-4.24l1.14-1.2v5.17H478.53z
			 M481.08,153.85l-1.14-1.24h4.13c1.13,0,1.97-0.24,2.54-0.72c0.57-0.48,0.85-1.15,0.85-2.01c0-0.88-0.28-1.55-0.85-2.02
			c-0.57-0.47-1.42-0.71-2.54-0.71h-4.13l1.14-1.26V153.85z"/>
		<path d="M489.96,158.74l6.19-13.75h2.51l6.21,13.75h-2.67l-5.32-12.4h1.02l-5.3,12.4H489.96z M492.81,155.56l0.69-2h7.43l0.69,2
			H492.81z"/>
		<path d="M506.62,158.74v-13.75h5.66c1.22,0,2.26,0.2,3.13,0.59c0.87,0.39,1.54,0.96,2.01,1.69c0.47,0.73,0.71,1.6,0.71,2.61
			c0,1.01-0.24,1.88-0.71,2.6c-0.47,0.73-1.14,1.28-2.01,1.67c-0.87,0.39-1.92,0.58-3.13,0.58h-4.24l1.14-1.16v5.17H506.62z
			 M509.17,153.85l-1.14-1.22h4.13c1.13,0,1.97-0.24,2.54-0.73c0.57-0.48,0.85-1.16,0.85-2.02c0-0.88-0.28-1.55-0.85-2.02
			c-0.57-0.47-1.42-0.71-2.54-0.71h-4.13l1.14-1.26V153.85z M515.61,158.74l-3.48-4.99h2.73l3.5,4.99H515.61z"/>
		<path d="M519.03,158.74l6.19-13.75h2.51l6.21,13.75h-2.67l-5.32-12.4h1.02l-5.3,12.4H519.03z M521.88,155.56l0.69-2h7.43l0.69,2
			H521.88z"/>
		<path d="M543.9,158.74v-11.59h-4.56v-2.16h11.67v2.16h-4.56v11.59H543.9z"/>
		<path d="M558.59,158.94c-1.89,0-3.36-0.53-4.43-1.59c-1.07-1.06-1.6-2.59-1.6-4.6v-7.76h2.55v7.66c0,1.41,0.3,2.44,0.91,3.08
			c0.61,0.64,1.47,0.96,2.58,0.96s1.97-0.32,2.57-0.96c0.6-0.64,0.9-1.67,0.9-3.08v-7.66h2.51v7.76c0,2-0.53,3.54-1.6,4.6
			C561.94,158.41,560.47,158.94,558.59,158.94z"/>
		<path d="M579.97,158.94c-1.05,0-2.02-0.17-2.92-0.52c-0.9-0.35-1.68-0.84-2.34-1.47c-0.66-0.64-1.18-1.38-1.54-2.25
			c-0.37-0.86-0.55-1.81-0.55-2.83c0-1.02,0.18-1.96,0.55-2.83c0.37-0.86,0.88-1.61,1.55-2.25c0.67-0.64,1.45-1.13,2.34-1.47
			c0.89-0.35,1.87-0.52,2.93-0.52c1.13,0,2.15,0.19,3.08,0.58c0.93,0.39,1.72,0.96,2.36,1.72l-1.65,1.55
			c-0.5-0.54-1.05-0.94-1.67-1.21c-0.62-0.27-1.28-0.4-2-0.4c-0.72,0-1.38,0.12-1.97,0.35c-0.6,0.24-1.11,0.57-1.55,1
			c-0.44,0.43-0.78,0.94-1.02,1.53c-0.24,0.59-0.36,1.24-0.36,1.94s0.12,1.36,0.36,1.94c0.24,0.59,0.58,1.1,1.02,1.53
			c0.44,0.43,0.96,0.77,1.55,1c0.6,0.24,1.25,0.35,1.97,0.35c0.72,0,1.39-0.13,2-0.4c0.62-0.27,1.17-0.68,1.67-1.23l1.65,1.57
			c-0.64,0.75-1.43,1.32-2.36,1.71C582.14,158.74,581.1,158.94,579.97,158.94z"/>
		<path d="M594.03,158.94c-1.07,0-2.06-0.18-2.97-0.53c-0.9-0.35-1.69-0.85-2.36-1.48c-0.67-0.64-1.19-1.38-1.55-2.24
			c-0.37-0.86-0.55-1.8-0.55-2.82c0-1.02,0.18-1.96,0.55-2.82c0.37-0.86,0.88-1.6,1.55-2.24c0.67-0.64,1.45-1.13,2.36-1.48
			c0.9-0.35,1.89-0.53,2.95-0.53c1.07,0,2.06,0.18,2.96,0.53c0.9,0.35,1.68,0.85,2.35,1.48c0.67,0.64,1.18,1.38,1.55,2.24
			c0.37,0.86,0.55,1.8,0.55,2.82c0,1.02-0.18,1.96-0.55,2.83c-0.37,0.86-0.88,1.61-1.55,2.24c-0.67,0.63-1.45,1.12-2.35,1.47
			C596.07,158.76,595.09,158.94,594.03,158.94z M594.01,156.7c0.69,0,1.34-0.12,1.92-0.35c0.59-0.24,1.1-0.57,1.53-1.01
			c0.43-0.44,0.77-0.95,1.01-1.53c0.24-0.58,0.36-1.23,0.36-1.93s-0.12-1.35-0.36-1.93s-0.58-1.09-1.01-1.53
			c-0.43-0.44-0.94-0.78-1.53-1.01c-0.59-0.24-1.23-0.35-1.92-0.35c-0.69,0-1.33,0.12-1.92,0.35c-0.58,0.24-1.09,0.57-1.53,1.01
			c-0.44,0.44-0.78,0.95-1.02,1.53c-0.24,0.58-0.36,1.23-0.36,1.93c0,0.69,0.12,1.34,0.36,1.93c0.24,0.59,0.58,1.1,1.01,1.54
			c0.43,0.44,0.94,0.78,1.53,1.01C592.67,156.58,593.32,156.7,594.01,156.7z"/>
		<path d="M604.13,158.74v-13.75h2.1l8.62,10.59h-1.04v-10.59h2.53v13.75h-2.1l-8.62-10.59h1.04v10.59H604.13z"/>
		<path d="M622.83,158.74v-11.59h-4.56v-2.16h11.67v2.16h-4.56v11.59H622.83z"/>
		<path d="M629.23,158.74l6.19-13.75h2.51l6.21,13.75h-2.67l-5.32-12.4h1.02l-5.3,12.4H629.23z M632.08,155.56l0.69-2h7.43l0.69,2
			H632.08z"/>
		<path d="M645.89,158.74v-13.75h6.44c1.65,0,2.91,0.32,3.77,0.97c0.86,0.65,1.3,1.52,1.3,2.6c0,0.73-0.17,1.36-0.51,1.88
			c-0.34,0.52-0.8,0.92-1.37,1.2c-0.57,0.28-1.19,0.42-1.86,0.42l0.35-0.71c0.77,0,1.47,0.14,2.08,0.42
			c0.62,0.28,1.1,0.69,1.46,1.23c0.36,0.54,0.54,1.2,0.54,2c0,1.18-0.45,2.1-1.36,2.75c-0.9,0.65-2.25,0.98-4.03,0.98H645.89z
			 M648.44,156.74h4.13c0.96,0,1.69-0.16,2.2-0.47c0.51-0.31,0.77-0.82,0.77-1.51c0-0.68-0.26-1.18-0.77-1.5
			c-0.51-0.32-1.24-0.48-2.2-0.48h-4.32v-1.98h3.81c0.89,0,1.57-0.16,2.05-0.47c0.48-0.31,0.72-0.79,0.72-1.41
			c0-0.64-0.24-1.12-0.72-1.43c-0.48-0.31-1.16-0.47-2.05-0.47h-3.61V156.74z"/>
		<path d="M660.84,158.74v-13.75h2.55v13.75H660.84z"/>
		<path d="M667.1,158.74v-13.75h2.55v11.59h7.19v2.16H667.1z"/>
		<path d="M678.87,158.74v-13.75h2.55v13.75H678.87z"/>
		<path d="M685.14,158.74v-13.75h6.01c1.49,0,2.8,0.29,3.93,0.86c1.13,0.58,2,1.37,2.63,2.4c0.63,1.02,0.94,2.23,0.94,3.61
			c0,1.38-0.31,2.58-0.94,3.6c-0.63,1.03-1.51,1.83-2.63,2.41c-1.13,0.58-2.44,0.86-3.93,0.86H685.14z M687.69,156.58h3.34
			c1.03,0,1.93-0.2,2.68-0.59c0.75-0.39,1.34-0.94,1.75-1.65c0.41-0.71,0.62-1.53,0.62-2.48c0-0.96-0.21-1.78-0.62-2.48
			c-0.41-0.7-1-1.25-1.75-1.64c-0.75-0.39-1.65-0.59-2.68-0.59h-3.34V156.58z"/>
		<path d="M699.22,158.74l6.19-13.75h2.51l6.21,13.75h-2.67l-5.32-12.4h1.02l-5.3,12.4H699.22z M702.07,155.56l0.69-2h7.43l0.69,2
			H702.07z"/>
		<path d="M715.88,158.74v-13.75h6.01c1.49,0,2.8,0.29,3.93,0.86c1.13,0.58,2,1.37,2.63,2.4c0.63,1.02,0.94,2.23,0.94,3.61
			c0,1.38-0.31,2.58-0.94,3.6c-0.63,1.03-1.51,1.83-2.63,2.41c-1.13,0.58-2.44,0.86-3.93,0.86H715.88z M718.43,156.58h3.34
			c1.03,0,1.93-0.2,2.68-0.59c0.75-0.39,1.34-0.94,1.75-1.65c0.41-0.71,0.62-1.53,0.62-2.48c0-0.96-0.21-1.78-0.62-2.48
			c-0.41-0.7-1-1.25-1.75-1.64c-0.75-0.39-1.65-0.59-2.68-0.59h-3.34V156.58z"/>
		<path d="M732.26,158.88c-0.45,0-0.83-0.15-1.14-0.46c-0.31-0.31-0.47-0.7-0.47-1.17c0-0.5,0.16-0.89,0.47-1.19
			c0.31-0.29,0.69-0.44,1.14-0.44c0.45,0,0.83,0.15,1.14,0.44c0.31,0.3,0.47,0.69,0.47,1.19c0,0.47-0.16,0.86-0.47,1.17
			C733.09,158.72,732.71,158.88,732.26,158.88z"/>
	</g>
	<text transform="matrix(1 0 0 1 242.3647 122.3929)" class="st0 st1 st2">Contaduria Online</text>
	<g id="XMLID_2317_">
		<g id="XMLID_2325_">
		</g>
		<g id="XMLID_2308_">
			<rect id="XMLID_2322_" x="23.5" y="45.76" width="27.75" height="113.61"/>
			<path id="XMLID_2319_" d="M95.45,10.58v37.78v12.66v64.86c6.81-7.53,14.27-14.6,22.28-21.09c1.85-1.5,3.67-2.92,5.47-4.29V49.82
				V36.41V10.58H95.45z"/>
			<path id="XMLID_2316_" d="M59.47,28.5v71.36v2.33v57.18h11.78c0.96-1.7,1.94-3.39,2.96-5.07c1.82-2.99,3.76-5.98,5.76-8.89
				c2.29-3.32,4.73-6.61,7.25-9.81V67.49V55.85V28.5H59.47z"/>
			<g id="XMLID_2309_">
				<path id="XMLID_2313_" d="M158.28,42.6c5.76,4.36,11.06,9.71,15.83,16.01c11.58,6.08,30.49,19.85,33.9,46.11
					c0,0-93.42,13.59-136.04,105.94c0,0,63.95-97.59,153.5-90.3C225.46,120.36,219.15,44.05,158.28,42.6z"/>
				<path id="XMLID_2310_" d="M132.16,38.07v14.39c11.68,4.31,27.17,13.64,33.94,33.64c0,0-19.94,7.51-42.9,26.13
					c-9.13,7.4-18.74,16.57-27.75,27.71c-2.81,3.47-5.56,7.13-8.22,11c-1.87,2.71-3.7,5.52-5.47,8.43
					c-8.82,14.5-16.27,31.49-20.98,51.28c0,0,11.46-28.77,34.67-57.5c7.89-9.77,17.14-19.54,27.75-28.16
					c17.04-13.85,37.62-24.77,61.76-28.07C184.97,96.9,173.21,48.74,132.16,38.07z"/>
			</g>
		</g>
	</g>
</g>
</svg>
