<?xml version="1.0" encoding="utf-8"?>
<!-- Generator: Adobe Illustrator 24.0.2, SVG Export Plug-In . SVG Version: 6.00 Build 0)  -->
<svg version="1.1" id="Capa_1" xmlns="http://www.w3.org/2000/svg" xmlns:xlink="http://www.w3.org/1999/xlink" x="0px" y="0px"
	 viewBox="0 0 841.89 223.96" style="enable-background:new 0 0 841.89 223.96;" xml:space="preserve">
<g>
	<g>
		<g>
			<path d="M287.23,93.94c0-38.13,33-69.15,73.7-69.15s73.92,31.02,73.92,69.15s-33.22,69.15-73.92,69.15
				S287.23,132.07,287.23,93.94z M312.97,93.94c0,25.49,21.56,46.03,47.96,46.03c26.62,0,48.18-20.55,48.18-46.03
				s-21.56-46.03-48.18-46.03C334.54,47.91,312.97,68.46,312.97,93.94z"/>
			<path d="M477.32,163.09c-7.04,0-12.76-5.14-12.76-11.46V36.26c0-6.32,5.72-11.46,12.76-11.46h37.4c0.88,0,65.34-0.2,65.34,69.15
				c0,69.34-64.46,69.15-65.34,69.15H477.32z M490.3,139.98h24.42c0.66,0,10.56-0.2,20.46-5.93c12.76-7.31,19.14-20.94,19.14-40.11
				c0-19.56-6.6-33.19-20.02-40.5c-9.68-5.33-19.36-5.53-19.58-5.53H490.3V139.98z"/>
			<path d="M609.76,151.63V36.26c0-6.32,5.72-11.46,12.76-11.46c7.04,0,12.76,5.14,12.76,11.46v115.38
				c0,6.32-5.72,11.46-12.76,11.46C615.48,163.09,609.76,157.96,609.76,151.63z"/>
			<path d="M757.17,158.15l-66.44-85.35v78.83c0,6.32-5.94,11.46-12.98,11.46c-7.04,0-12.76-5.14-12.76-11.46V36.26
				c0-5.93,5.28-11.46,12.98-11.46c3.96,0,7.92,1.78,10.34,4.94l66.44,85.35V36.26c0-6.32,5.72-11.46,12.98-11.46
				c7.04,0,12.76,5.14,12.76,11.46v115.38c0,6.13-5.72,11.46-12.76,11.46C763.55,163.09,759.59,161.31,757.17,158.15z"/>
		</g>
		<g>
			<path d="M555.14,186.16c-1.18-0.72-2.36-0.75-2.39-0.75h-2.98v12.5h2.98c0.08,0,1.29-0.03,2.49-0.81
				c1.55-0.99,2.33-2.84,2.33-5.44C557.58,189.01,556.78,187.16,555.14,186.16z"/>
			<path d="M685.46,192.44h-3.7v5.47h3.7c0.03,0,0.75-0.03,1.39-0.38c1.05-0.59,1.15-1.64,1.15-2.36
				C688.01,194.18,687.39,192.44,685.46,192.44z"/>
			<path d="M686.45,187.37c0-1.8-1.23-1.96-1.74-1.96c-0.13,0-0.21,0-0.21,0h-2.74v3.92h2.33
				C684.5,189.33,686.45,189.25,686.45,187.37z"/>
			<path d="M615.41,185.41c-3.22,0-5.85,2.79-5.85,6.25c0,3.46,2.63,6.25,5.85,6.25c3.24,0,5.87-2.79,5.87-6.25
				C621.28,188.2,618.65,185.41,615.41,185.41z"/>
			<polygon points="389.04,194.02 393.79,194.02 391.43,188.04 			"/>
			<polygon points="509.55,194.02 514.29,194.02 511.93,188.04 			"/>
			<path d="M495.57,185.81c-0.8-0.4-1.66-0.4-1.66-0.4h-2.68v6.25h2.68c1.34,0,2.2-0.46,2.71-1.42c0.43-0.8,0.46-1.66,0.46-1.72
				C497.07,187.18,496.59,186.32,495.57,185.81z"/>
			<polygon points="664.54,194.02 669.29,194.02 666.93,188.04 			"/>
			<path d="M767.45,186.16c-1.18-0.72-2.36-0.75-2.39-0.75h-2.98v12.5h2.98c0.08,0,1.29-0.03,2.49-0.81
				c1.56-0.99,2.33-2.84,2.33-5.44C769.89,189.01,769.09,187.16,767.45,186.16z"/>
			<polygon points="744.87,194.02 749.62,194.02 747.26,188.04 			"/>
			<path d="M731.62,186.16c-1.18-0.72-2.36-0.75-2.39-0.75h-2.98v12.5h2.98c0.08,0,1.29-0.03,2.49-0.81
				c1.56-0.99,2.33-2.84,2.33-5.44C734.06,189.01,733.26,187.16,731.62,186.16z"/>
			<path d="M766.65,174.62H299.78c-9.4,0-17.03,7.62-17.03,17.03c0,9.4,7.62,17.03,17.03,17.03h466.87c9.4,0,17.03-7.62,17.03-17.03
				C783.68,182.24,776.06,174.62,766.65,174.62z M305.2,195.07c0,1.56-0.62,3.03-1.69,4.1c-1.18,1.18-2.79,1.82-4.56,1.82h-0.21
				c-2.28-0.08-4.26-1.37-5.2-3.38c-0.11-0.21-0.13-0.46-0.13-0.67c0-0.59,0.32-1.15,0.91-1.42c0.21-0.11,0.43-0.13,0.64-0.13
				c0.59,0,1.18,0.32,1.45,0.91c0.43,0.94,1.34,1.53,2.44,1.56h0.13c0.94,0,1.72-0.29,2.28-0.86c0.54-0.54,0.83-1.21,0.83-1.93
				v-0.11c-0.08-1.23-2.41-2.33-3.43-2.63l-0.11-0.05c-2.76-0.99-4.16-2.74-4.16-5.15v-0.21c0.05-1.37,0.67-2.6,1.82-3.46
				c0.97-0.75,2.28-1.21,3.67-1.21h0.24c1.13,0.03,2.28,0.48,3.22,1.18c0.4,0.32,0.62,0.78,0.62,1.23c0,0.32-0.11,0.67-0.32,0.94
				c-0.32,0.4-0.78,0.62-1.26,0.62c-0.32,0-0.64-0.08-0.94-0.3c-0.4-0.32-0.94-0.51-1.42-0.54h-0.16c-1.31,0-2.33,0.67-2.36,1.64
				v0.11c0,1.31,1.02,1.8,2.07,2.23c0.8,0.24,5.47,1.74,5.63,5.44V195.07z M312.2,199.49c0,0.86-0.7,1.56-1.56,1.56
				s-1.56-0.7-1.56-1.56v-15.66c0-0.86,0.7-1.56,1.56-1.56s1.56,0.7,1.56,1.56V199.49z M327.89,195.07c0,1.56-0.62,3.03-1.69,4.1
				c-1.18,1.18-2.79,1.82-4.56,1.82h-0.21c-2.28-0.08-4.26-1.37-5.2-3.38c-0.11-0.21-0.13-0.46-0.13-0.67
				c0-0.59,0.32-1.15,0.91-1.42c0.21-0.11,0.43-0.13,0.64-0.13c0.59,0,1.18,0.32,1.45,0.91c0.43,0.94,1.34,1.53,2.44,1.56h0.13
				c0.94,0,1.72-0.29,2.28-0.86c0.54-0.54,0.83-1.21,0.83-1.93v-0.11c-0.08-1.23-2.41-2.33-3.43-2.63l-0.11-0.05
				c-2.76-0.99-4.16-2.74-4.16-5.15v-0.21c0.05-1.37,0.67-2.6,1.82-3.46c0.97-0.75,2.28-1.21,3.67-1.21h0.24
				c1.13,0.03,2.28,0.48,3.22,1.18c0.4,0.32,0.62,0.78,0.62,1.23c0,0.32-0.11,0.67-0.32,0.94c-0.32,0.4-0.78,0.62-1.26,0.62
				c-0.32,0-0.64-0.08-0.94-0.3c-0.4-0.32-0.94-0.51-1.42-0.54h-0.16c-1.31,0-2.33,0.67-2.36,1.64v0.11c0,1.31,1.02,1.8,2.06,2.23
				c0.8,0.24,5.47,1.74,5.63,5.44V195.07z M341.38,185.41h-3.11v14.08c0,0.86-0.72,1.56-1.58,1.56s-1.56-0.7-1.56-1.56v-14.08h-3.14
				c-0.86,0-1.56-0.7-1.56-1.58c0-0.86,0.7-1.56,1.56-1.56h9.39c0.86,0,1.58,0.7,1.58,1.56
				C342.96,184.72,342.24,185.41,341.38,185.41z M355.46,190.11c0.86,0,1.56,0.7,1.56,1.56c0,0.86-0.7,1.56-1.56,1.56h-5.47v4.69
				h7.03c0.88,0,1.58,0.7,1.58,1.58c0,0.86-0.7,1.56-1.58,1.56h-8.58c-0.89,0-1.58-0.7-1.58-1.56v-15.66c0-0.86,0.7-1.56,1.58-1.56
				h8.58c0.88,0,1.58,0.7,1.58,1.56c0,0.88-0.7,1.58-1.58,1.58h-7.03v4.69H355.46z M379.71,199.49c0,0.86-0.7,1.56-1.58,1.56
				c-0.86,0-1.56-0.7-1.56-1.56v-10.97l-4.21,5.63c-0.29,0.4-0.78,0.64-1.26,0.64s-0.97-0.24-1.26-0.64l-4.21-5.63v10.97
				c0,0.86-0.7,1.56-1.58,1.56c-0.86,0-1.56-0.7-1.56-1.56v-15.66c0-0.83,0.67-1.56,1.58-1.56c0.48,0,0.94,0.21,1.23,0.62l5.79,7.72
				l5.79-7.72c0.3-0.4,0.75-0.62,1.23-0.62c0.91,0,1.58,0.72,1.58,1.56V199.49z M397.68,201.05c-0.62,0-1.21-0.38-1.45-0.99
				l-1.18-2.92h-7.27l-1.18,2.92c-0.24,0.62-0.83,0.99-1.45,0.99c-0.91,0-1.56-0.78-1.56-1.56c0-0.21,0.03-0.4,0.11-0.59l6.25-15.63
				c0.24-0.59,0.83-0.99,1.47-0.99c0.62,0,1.21,0.4,1.45,0.99l6.25,15.63c0.08,0.19,0.11,0.4,0.11,0.59
				C399.23,200.3,398.61,201.05,397.68,201.05z M415.16,199.49c0,0.86-0.7,1.56-1.56,1.56s-1.56-0.7-1.56-1.56v-15.66
				c0-0.86,0.7-1.56,1.56-1.56s1.56,0.7,1.56,1.56V199.49z M433.13,199.49c0,0.83-0.7,1.56-1.56,1.56c-0.51,0-0.99-0.24-1.29-0.67
				l-8.1-11.59v10.7c0,0.86-0.72,1.56-1.58,1.56s-1.56-0.7-1.56-1.56v-15.66c0-0.81,0.64-1.56,1.58-1.56c0.48,0,0.97,0.24,1.26,0.67
				l8.1,11.59v-10.7c0-0.86,0.7-1.56,1.58-1.56c0.86,0,1.56,0.7,1.56,1.56V199.49z M447.96,185.41h-3.11v14.08
				c0,0.86-0.72,1.56-1.58,1.56c-0.86,0-1.56-0.7-1.56-1.56v-14.08h-3.14c-0.86,0-1.56-0.7-1.56-1.58c0-0.86,0.7-1.56,1.56-1.56
				h9.39c0.86,0,1.58,0.7,1.58,1.56C449.55,184.72,448.82,185.41,447.96,185.41z M462.05,190.11c0.86,0,1.56,0.7,1.56,1.56
				c0,0.86-0.7,1.56-1.56,1.56h-5.47v4.69h7.03c0.88,0,1.58,0.7,1.58,1.58c0,0.86-0.7,1.56-1.58,1.56h-8.58
				c-0.88,0-1.58-0.7-1.58-1.56v-15.66c0-0.86,0.7-1.56,1.58-1.56h8.58c0.88,0,1.58,0.7,1.58,1.56c0,0.88-0.7,1.58-1.58,1.58h-7.03
				v4.69H462.05z M472.69,196.09c1.21,1.23,2.82,1.85,4.43,1.85c1.42,0,2.82-0.48,3.97-1.42v-3.3h-3.92c-0.86,0-1.58-0.7-1.58-1.56
				c0-0.86,0.72-1.56,1.58-1.56h5.47c0.86,0,1.56,0.7,1.56,1.56v5.52c0,0.43-0.16,0.83-0.46,1.13c-1.82,1.82-4.24,2.74-6.62,2.74
				c-2.41,0-4.83-0.91-6.65-2.74c-1.77-1.77-2.74-4.13-2.74-6.65c0-2.49,0.97-4.85,2.74-6.62c1.77-1.8,4.13-2.76,6.65-2.76
				c2.49,0,4.85,0.97,6.65,2.76c0.29,0.3,0.43,0.67,0.43,1.07c0,0.4-0.14,0.8-0.46,1.13s-0.7,0.46-1.1,0.46
				c-0.4,0-0.8-0.14-1.1-0.46c-1.18-1.18-2.76-1.82-4.42-1.82c-1.69,0-3.25,0.64-4.43,1.82c-1.18,1.18-1.85,2.76-1.85,4.43
				C470.84,193.32,471.51,194.91,472.69,196.09z M499.97,198.66c0.16,0.27,0.24,0.54,0.24,0.83c0,0.51-0.27,1.02-0.75,1.31
				c-0.24,0.16-0.54,0.24-0.81,0.24c-0.54,0-1.05-0.27-1.34-0.72l-3.46-5.52h-2.63v4.69c0,0.86-0.72,1.56-1.58,1.56
				c-0.86,0-1.56-0.7-1.56-1.56v-15.66c0-0.86,0.7-1.56,1.56-1.56h4.26c0.16,0,1.58,0.03,3.06,0.75c2.09,1.05,3.25,2.98,3.25,5.5
				c0,0.16-0.03,1.61-0.75,3.06c-0.56,1.1-1.37,1.93-2.36,2.47L499.97,198.66z M518.18,201.05c-0.62,0-1.21-0.38-1.45-0.99
				l-1.18-2.92h-7.27l-1.18,2.92c-0.24,0.62-0.83,0.99-1.45,0.99c-0.91,0-1.56-0.78-1.56-1.56c0-0.21,0.03-0.4,0.11-0.59l6.25-15.63
				c0.24-0.59,0.83-0.99,1.47-0.99c0.62,0,1.21,0.4,1.45,0.99l6.25,15.63c0.08,0.19,0.11,0.4,0.11,0.59
				C519.74,200.3,519.12,201.05,518.18,201.05z M532.24,201.05h-7.03c-0.88,0-1.58-0.7-1.58-1.56v-15.66c0-0.86,0.7-1.56,1.58-1.56
				c0.86,0,1.56,0.7,1.56,1.56v14.08h5.47c0.86,0,1.58,0.7,1.58,1.58C533.82,200.35,533.09,201.05,532.24,201.05z M552.75,201.05
				h-4.56c-0.86,0-1.56-0.7-1.56-1.56v-15.66c0-0.86,0.7-1.56,1.56-1.56h4.56c0.11,0,7.96-0.03,7.96,9.39
				S552.86,201.05,552.75,201.05z M573.22,190.11c0.86,0,1.56,0.7,1.56,1.56c0,0.86-0.7,1.56-1.56,1.56h-5.47v4.69h7.03
				c0.89,0,1.58,0.7,1.58,1.58c0,0.86-0.7,1.56-1.58,1.56h-8.58c-0.88,0-1.58-0.7-1.58-1.56v-15.66c0-0.86,0.7-1.56,1.58-1.56h8.58
				c0.89,0,1.58,0.7,1.58,1.56c0,0.88-0.7,1.58-1.58,1.58h-7.03v4.69H573.22z M598.56,197.91c1.05,0,2.09-0.24,2.98-0.75
				c0.78-0.4,1.72-0.13,2.15,0.64c0.4,0.75,0.11,1.69-0.64,2.12c-1.37,0.72-2.9,1.13-4.48,1.13c-5.18,0-9.39-4.21-9.39-9.39
				c0-5.18,4.21-9.39,9.39-9.39c1.58,0,3.11,0.4,4.48,1.13c0.75,0.43,1.05,1.37,0.64,2.12c-0.43,0.78-1.37,1.05-2.15,0.64
				c-0.88-0.51-1.93-0.75-2.98-0.75c-3.43,0-6.25,2.79-6.25,6.25C592.31,195.12,595.13,197.91,598.56,197.91z M615.41,201.05
				c-4.96,0-8.98-4.21-8.98-9.39c0-5.18,4.02-9.39,8.98-9.39c4.96,0,9.01,4.21,9.01,9.39C624.42,196.84,620.37,201.05,615.41,201.05
				z M642.39,199.49c0,0.83-0.7,1.56-1.56,1.56c-0.51,0-0.99-0.24-1.29-0.67l-8.1-11.59v10.7c0,0.86-0.72,1.56-1.58,1.56
				c-0.86,0-1.56-0.7-1.56-1.56v-15.66c0-0.81,0.64-1.56,1.58-1.56c0.48,0,0.97,0.24,1.26,0.67l8.1,11.59v-10.7
				c0-0.86,0.7-1.56,1.58-1.56c0.86,0,1.56,0.7,1.56,1.56V199.49z M657.22,185.41h-3.11v14.08c0,0.86-0.72,1.56-1.58,1.56
				c-0.86,0-1.56-0.7-1.56-1.56v-14.08h-3.14c-0.86,0-1.56-0.7-1.56-1.58c0-0.86,0.7-1.56,1.56-1.56h9.39c0.86,0,1.58,0.7,1.58,1.56
				C658.8,184.72,658.08,185.41,657.22,185.41z M673.18,201.05c-0.62,0-1.21-0.38-1.45-0.99l-1.18-2.92h-7.27l-1.18,2.92
				c-0.24,0.62-0.83,0.99-1.45,0.99c-0.91,0-1.56-0.78-1.56-1.56c0-0.21,0.03-0.4,0.11-0.59l6.25-15.63
				c0.24-0.59,0.83-0.99,1.47-0.99c0.62,0,1.21,0.4,1.45,0.99l6.25,15.63c0.08,0.19,0.11,0.4,0.11,0.59
				C674.73,200.3,674.12,201.05,673.18,201.05z M685.65,201.05h-5.47c-0.86,0-1.56-0.7-1.56-1.56v-15.66c0-0.86,0.7-1.56,1.56-1.56
				h4.32c0.13,0,1.29,0.05,2.44,0.62c1.72,0.86,2.63,2.41,2.63,4.48c0,1.13-0.3,2.15-0.83,2.95c1.56,1.02,2.41,2.74,2.41,4.85
				C691.15,198.79,688.17,201.05,685.65,201.05z M698.15,199.49c0,0.86-0.7,1.56-1.56,1.56c-0.86,0-1.56-0.7-1.56-1.56v-15.66
				c0-0.86,0.7-1.56,1.56-1.56c0.86,0,1.56,0.7,1.56,1.56V199.49z M710.65,201.05h-7.03c-0.88,0-1.58-0.7-1.58-1.56v-15.66
				c0-0.86,0.7-1.56,1.58-1.56c0.86,0,1.56,0.7,1.56,1.56v14.08h5.47c0.86,0,1.58,0.7,1.58,1.58
				C712.23,200.35,711.51,201.05,710.65,201.05z M719.23,199.49c0,0.86-0.7,1.56-1.56,1.56c-0.86,0-1.56-0.7-1.56-1.56v-15.66
				c0-0.86,0.7-1.56,1.56-1.56c0.86,0,1.56,0.7,1.56,1.56V199.49z M729.23,201.05h-4.56c-0.86,0-1.56-0.7-1.56-1.56v-15.66
				c0-0.86,0.7-1.56,1.56-1.56h4.56c0.11,0,7.96-0.03,7.96,9.39S729.34,201.05,729.23,201.05z M753.51,201.05
				c-0.62,0-1.21-0.38-1.45-0.99l-1.18-2.92h-7.27l-1.18,2.92c-0.24,0.62-0.83,0.99-1.45,0.99c-0.91,0-1.56-0.78-1.56-1.56
				c0-0.21,0.03-0.4,0.11-0.59l6.25-15.63c0.24-0.59,0.83-0.99,1.47-0.99c0.62,0,1.21,0.4,1.45,0.99l6.25,15.63
				c0.08,0.19,0.11,0.4,0.11,0.59C755.06,200.3,754.45,201.05,753.51,201.05z M765.07,201.05h-4.56c-0.86,0-1.56-0.7-1.56-1.56
				v-15.66c0-0.86,0.7-1.56,1.56-1.56h4.56c0.11,0,7.96-0.03,7.96,9.39S765.17,201.05,765.07,201.05z"/>
		</g>
	</g>
	<g>
		<g>
			<path d="M230.63,88.64c-16.99,19.65-44.35,36.02-56.43,39.78c-20.71,8.3-44.45,9.47-55.03,7.81
				c-10.58-1.67-33.07-9.32-33.07-9.32s9.01,6.54,31.72,14.61c22.71,8.07,52.66,6.66,80.8-5.54s49.52-32.49,49.52-32.49l8.11,15.28
				l9.41-49.6l-49.74,15.53C215.94,84.69,227.76,87.83,230.63,88.64z"/>
			<g>
				<path d="M103.46,137.87v32.01h28.59v-22.02c-6.04-1.11-11.78-2.76-17.08-4.93C110.63,141.15,106.81,139.45,103.46,137.87z"/>
				<path d="M143.69,149.3v20.58h28.65v-22.24C162.54,149.41,152.87,149.94,143.69,149.3z"/>
				<path d="M183.95,145.12v24.76h28.65v-36.33c-5.2,2.74-10.81,5.37-16.69,7.64C191.94,142.71,187.95,144.02,183.95,145.12z"/>
			</g>
			<g>
				<path d="M132.05,133.5V88.43h-28.59v41.2c6.56,1.61,13.88,3.22,18.7,3.73C124.76,133.63,128.14,133.7,132.05,133.5z"/>
				<path d="M172.34,64.84H143.7v67.42c8.92-1.33,19.02-3.77,28.64-7.66V64.84z"/>
				<path d="M212.6,39.58h-28.64v79.77c8.02-4.28,18.6-11.43,28.64-20.14V39.58z"/>
			</g>
		</g>
		<g>
			<path d="M233.21,43.63c-0.37-0.21-0.81-0.34-1.11-0.63c-7.56-7.49-16.14-13.55-25.77-18.12c-8.75-4.15-17.92-7.02-27.57-8.07
				c-5.26-0.57-10.6-0.96-15.88-0.82c-11.95,0.32-23.42,2.99-34.36,7.84C115.26,29.7,104,38.19,94.73,49.24
				c-10.23,12.19-16.82,26.1-19.79,41.68c-1.97,10.33-2.15,20.69-0.56,31.1c1.59,10.4,4.87,20.24,9.88,29.5
				c7.16,13.23,17,24.1,29.47,32.61c9.09,6.21,18.99,10.67,29.68,13.33c10.12,2.53,20.39,3.34,30.82,2.44
				c16.95-1.46,32.32-7.13,46.17-16.88c6.75-4.75,12.68-10.39,17.94-16.73c0.11-0.14,0.24-0.27,0.35-0.4
				c0.07,0.06,0.14,0.12,0.21,0.17c-1.97,2.4-3.88,4.86-5.93,7.19c-5.55,6.28-11.82,11.78-18.78,16.48
				c-7.8,5.26-16.17,9.34-25.13,12.26c-11.78,3.83-23.87,5.32-36.23,4.7c-8.48-0.42-16.77-1.96-24.88-4.52
				c-11.21-3.54-21.48-8.86-30.74-16.04c-11.67-9.04-20.97-20.05-27.73-33.16c-3.68-7.13-6.54-14.58-8.23-22.4
				c-1.01-4.65-1.6-9.4-2.2-14.13c-0.77-6.11-0.55-12.25,0.06-18.36c0.82-8.23,2.7-16.23,5.57-24c3.24-8.74,7.63-16.87,13.2-24.37
				c7.58-10.19,16.76-18.69,27.59-25.41c10.47-6.49,21.77-10.89,33.89-13.21c8.46-1.61,16.99-2.07,25.6-1.51
				c11.43,0.74,22.38,3.38,32.87,7.9c10.43,4.49,19.84,10.53,28.11,18.28c2.34,2.19,4.53,4.54,6.76,6.84
				c0.25,0.26,0.32,0.7,0.48,1.06C233.17,43.67,233.21,43.63,233.21,43.63z"/>
			<path d="M233.21,43.63c0,0-0.04,0.04-0.04,0.04c0.24,0.09,0.57,0.11,0.72,0.29c1.9,2.32,3.77,4.67,5.53,7.1
				c-2.07-2.31-4.14-4.61-6.2-6.93C233.14,44.03,233.21,43.8,233.21,43.63z"/>
		</g>
	</g>
</g>
</svg>
